/* XPM */
static char *_2477_34edb4b19c715c2aa462d27ccad14bac5fd557de796f3fca16d84a1c0cda1d03[] = {
/* columns rows colors chars-per-pixel */
"128 128 40 1 ",
"  c #1F1E1C",
". c #22211F",
"X c #262422",
"o c #292725",
"O c #2A2826",
"+ c #2D2B29",
"@ c #302E2C",
"# c #32302E",
"$ c #363431",
"% c #383634",
"& c #3B3936",
"* c #3E3C39",
"= c #413F3B",
"- c #44423E",
"; c #474440",
": c #494642",
"> c #4C4A46",
", c #4F4C48",
"< c #514E4A",
"1 c #54514D",
"2 c #575450",
"3 c #595651",
"4 c #5D5A55",
"5 c #605C57",
"6 c #615E59",
"7 c #65615C",
"8 c #68645F",
"9 c #6A6661",
"0 c #6D6964",
"q c #716D66",
"w c #736E68",
"e c #75716B",
"r c #79756E",
"t c #7B7770",
"y c #7E7972",
"u c #817C76",
"i c #847F78",
"p c #86817A",
"a c #89847D",
"s c #8C8780",
/* pixels */
"+#$$$$$@--;:<<<<11111111ttttrw09OOO+@++O>>,11212eweeee09++++##++->>>,>,<<<<,<<,<><<><><>666666662211212166666666<<<<<<11yuuiiuuu",
"+@$$$$$$;-;:><<<11111111tyytte09XOO+@+OO:>,,1121eeeree09++###++O-->,,>,-,<,<<,<,<>><><<>666666661112111166666666<<<<<<1<uupuiiiu",
"@@$$%$$#;-;><<<<<1111212ttyytr09XO+++++O::,,1122eeeeee08+O+###+O---,>,,,<,<,<,,<><<><<><666666661111112166666666<<<<<1<1yuppppiu",
"@##$%$$$;-;:><<<11111111tyyyte09OO+++++O::>11111weereq08O++#@++O-->,,,,,,<,<,,<,<><<<><>666666662121212166666666<<<<<<11uppppppu",
"@@$$%%$$;-;><<<<11111112rrttrw09OOO+++OO:::11221qqqwe098O++###++---,<,,,,,,,,<,,<><><>><666666661221121166666666<<<<<111iippaaii",
"@@$$%%$#;-;:,<<<11111111rrrewq97XOO+++OO::,1111100099884OO++++OO-->,,<<,,,-----,><><><<>666666661111112166666666<<<<<111uipappii",
"@@#%$%$#;-;:,<<<1111111<eqqq9977XO++@++O::,1221,88777774oOO+++Oo--,,<<,,-,--=---:,:<<>><666666661221211166666666<<<<<1<1uiaaappi",
"@@#$%%%#;-;>,<<<111<11<<09997766OO++@+OO:>,222<,75474743ooOOOOoo->,<1<,----&%&---:><><<>666667662111111266666666<<<<<111iippaaii",
"oO@@@@@+==-;>>>>2222211,...o....O+@@@@+O99qetrq9OOOO++Oo****----8qtyyttw+......O-:<<<<<<rrtryrrr&&&&&&&&76666666&&&&&***ryyyuuyt",
"oO++@@+O-==;>>>>222222<,....o.oo++@@@@+O79wetew9OO++@++O*=*-----qetuptt8OOO.O.O.--:<<<<<rttyyryy&&&&&&&&66666666&&&&&&&*ryuyuyyt",
"oO+@@@@+-=-;>>>>222221<>..XXoooo@@@@@+++99wtttw9O+@@@++O----->>>ttyyyyeq..+.Oo.O-::<><<<ryryyyrr&*&&&&&&66666666&&&&&&&*ryyuuyyt",
"oOO@@@@+-=-;>>>>222222<>.Xoooooo@@#@@+@+99wtytw0+O+##@+O--->>>,,typyputq+O+OOOOo-::><<<<trtyyyyy&&&&&&&&66666666&&&&&***ryyuyyyt",
"OO+@@@@O-==;:>>,222221<,...ooOOo@@@@+@++99wtiye0++@##++O---,,,1,yuppyutqOoO+++O.-:<<<<<<ttyyyyrr*&&&&&&&66666666&&&&&***ryuyuuyy",
"oO++@@@O==-;>>>>222222<,..oooOoo++@+@+++79wtyye0+++@#+++-->>>,,,yyyupprqOOO++OOO-:><<<<<tttyyyyr&*&&&&&&66666666&&&&&*&*ryyuuyyy",
"OO@@@@@@==-;>>>>222221<,.XXoooooOOO+++OO99wtyye0++@##++O--,,,,,1yypppyywOoOO++Oo-::,<<<<rttyyyyr*&&&&&&&66666666&&&&&&**ryuyuyyr",
"oO+@@@+O-=-;:>>>222221<>..XoooX.OOOOOOOO69wtyye0++@@#+OO-->,>,,,yyyppptwOOOO+OOo-->,<><<rrtrryrr&&&&&&&&66666666&&&&&&**ryyuyyyr",
"XXOOOOOO***-;:::>>>:>:;-oO+###+o*===;=;-9qeyiyrqOO+++Ooo-:>,,,<<tyuppytqO.+++.O.--,,,,,,66667676&&&&&&&&66666666&&&&&&*&yuupppuy",
"XXoO+OOX**=-:>::>>>>>:;-OO++#+OO*==;;;;;0wyyiyrqOO+@++oo-;,,<<<<tyypyptwOO+++++.-,-,,,,,66666666&&&&&&&&66666666&&&&&***yupuuuuu",
"XXOOOOOO***;;:::>:>>>:;-+O+###+O==;:::>,eyyiiyeqOO+@++oo-:>,,,<<ttyypytw.+.++O.O--,,,,,,66666666&&&&&&&&66666666&&&&&&*&yuuupuyy",
"XXXOOOOX***-;:::>>>>>:;-O++##++O=;::>,,,tyyipyrqOO++++Oo-:>,,<,<ttypypte+O+O+++.--,,,,,,66666666&&&&&&&&66666666&&&&&&&*ryuuuuyy",
"XXoOOXXX&&*-;;::>>:>>:;-OO+##++O-;:,,<<<tyiiiyrqO+++++Oo;:,,,,<<ttyupptw.++++++.---,,,,,66657557&&&&&$&&46666666&&&%&%%&rryyyyyy",
"X oXXXX.%%&=;;::>:>>>:;-O++++#++;;>,<<1<tyyppyeqO++@++OX-;>,,,,<rtyyyytw+O++++OO--,,,,,,55677754$$$$$#$$44677664&$$$$#$$eryyyyyr",
".XXXX.X #%%*==;;:>>>>:;=O++##++O=:>,,<<<yyyiiirqO+++++Oo;:,,,,,,rttupyyw+OO++OO.--,,,,,<67577454$$######34677664$#######0eryyyyr",
"XX.XXX. $#%&===-;;:>>:;-O++###+O;::,<<<<tyyyyyewO++@+OOo=::,,,,<rrtyyuyw+.+++O+.-,-,,,<,57777774$#@##@##14667663#####+#@8qerrrrr",
">>>>>>;-oooO++++=;::>:;=OO+#+++O<244667777799764oO+@+Ooo;:,,<,,<erttypteOO++++.O-,,,<<<<rryttrw8XXXoooXX00tuuyeqO+OOOOOO13666766",
"<,,<,,>;OoO+++++=-::>:-=OO++#++O1234664677799764OO++++oo;:,,,<<<ettyyytwOO+++++.---,<<<<tyyyyrw0oooOOOOo0wtuuyr0+O@@@@OO13466666",
"1<1<1,>;+O@@##++==::::;=OO+#+#+O1144666767777742OO+@+OOo-:>,<<,<erttyyteOO+++++.--<<<<<<rtyprte8ooOO++oO0eyuiye0++@@@@OO11466666",
"111111,>++@###++=-::::;-OO++#++O<344666667779652OO++++oo;;,<<,<,eettyyteOO+++++O--,,<<11yrpyppe0OoO++OOo0eypiur0@+@@@@@+,1446666",
"111211,:+@@#=#@+==;:::;=O++++++O<144476666777641oOO+++oo;:,,,<,<etrtyyrwO++++++.-,-<<<<1yypptte0ooO++OOOqeyipyrw++@###+O11466666",
"121111,:+@@#@##@==-:>:;-OOO+++OO1344666666666541ooOO+Ooo-:,<<,<,eeetttrwOO+++++.--,,<<<1tpyppye0ooO+O+oO0eyppyrw++@@#@+O<1446666",
"21112<,>@+#$###@==-::::-OO+OOooO134466666667653<XXoOOOoX->><,<,<eetrtrewOO++++.O--<,<<11yypypyw0OoO++OOO0ryipur0O@@##@@O11446666",
"112111,:+@##$$#@===:>:::++OOOOOO344466666664654<XXXooXoo;;>,<,<<eeetrtrwOO+++++.-,,<<111yppppre0OOO+++oO0eyiiur0@@@@##+O11446666",
"<<1<<<,;O++##@@O::,<111<>::-----4466666666666432;--;;-;;;>><,,,,2222222<@+##$#+O->,<1112uyppput0OoO+++OO9wruuyr0ooO++OOX12444474",
"1<1<<<>;OO+@#@++;:,<<11<>>>>;;>:4466666666666663>>;>::;>;>,>,,,,2222222<++@$#@@+--><<1<2yppppur0OoO++OOo9qruutw0oXOO+OoX12444747",
"1<<<1,>:O++@#@@O;:<<1111,,,,>>>>6466666666666663<,,,<,><>><>,,,,<222222,++@###++>:,<1121uppppyr0ooO++OOo9wryutw0XoO+O+OX<2446676",
"<<<1<,>;+O+##@@+;:><1111,,,,,,,,6666666666666667<1<<<<1<>,,<,,,,222222<<+++@#@++->><<12<uyyppyr0ooO++OOo7qrttrw0ooOO@OOX11446666",
"<1<<1,>;O++@#@@O;>,<1111,,,,,,,,6666666666666666111111<1<,,,,,,,22222<<,+++@#@+O-:<<1112yuppuye0ooO+++Oo8wertew8ooOO+OoX<2446666",
"<<1<<,>;OO+@@@++->><<111,,,,,,,,666666666666666611111111,,,,,,,,2<2222<>+++##@++-,,<<212yuuyyye0oOO++OOo70wrteq8XXO++OOo<2466666",
"11<<1,,;OO+@@@+O;;><11<1,,,,,,,,666766666666666611<11111,,,,,,,,<2<22<2>O++##@++->,<1<11yuuuuye0ooO++OOX70wereq8ooOO++oX12446666",
"<<<1<<>;OOO+O++O-;><1111,,,,,,,,66667667666666661111111<,,,,,,,,222222<>++@@##+O--><<1<2ttyuute8XoO++OOo70wree08XoO+OOoX<2444666",
"<2<2<2,:&&&****&;;<<1111,,,>,><>tttttttt<<><<><<,,>,,>,,<1<1<11<<1<2<2>:ooOO++Oo->>,<1<1qqwwwq87OoO+@OOO12444441OO+@@@+O-;:,,,,,",
"2<2<2<,:*&&*****;><<1111>>,,>,><ttyyyyty<<<<<<><>,,>>,>,<<<<<<<<2<<2<<<:ooo++OOo-:><<<<<qqwwqq86ooO+++OO<2446421OO+@@@+O-;:,,,,,",
"<2<2<2<,=***=**=>,<<1111,>,>,<><ttyyyyyy1<<<<<<<,>,>,,>>1<1<1<<1<<<<1<<-Ooo+++OO--<<<<1<qqqwq085oo++@OOo12446421OO+@@++O-;:,,,,,",
"2<2<2<<<;=-----;<<111111,,,>>,<,yyiyiyyy1<<<<><<,>,,,>,,1<<<1<<<<22<<1<>.oOO+OO.-><<<<<1qqqqq086OO++++OO<2444421O++@@@+O-;:,,,,,",
"<2<2<2<<;;;:;:::1<111111>,,>,,<<yyiuiyyy1<<<<<<<>,>>,,,><<<<<<<<<11<11,:ooO++Ooo--><<<<1qqqqq096oo+@++Oo12444421OO@@@++o;;:,,,,,",
"2<2<2<2<::::::::1<<1<<<<>>,,,,<<yiuiiiiy1<1<><<>,,,,>>,,<<,<<<,,<<11<<<:oOo+++Oo--><<1<1qqqqq096oOO+@OOO<2446421oO+@@@+O-;:,,,,,",
"<2<2<2<2::>>>:::<<,,<,<,:>>>,,<<yuiipiyy1<<<<<<<,>>,,>>><>>:>;>:><<11<<-o.o+++Oo:>><11<1q0qwq076ooO+++Oo12446431O++@@@+O-;:,,,,,",
"2<2<2<22>>:>>::;,>;>;;;;;;>,,<<<yuipppiy11<<>,<,>,,>,,>>>:;;;;-;:<<<11<>ooOO+Ooo-><<<<1<q0q00076OoO@++OO<2446432oO+@@++O-;:,,,,,",
",<,<,<<<67777762$###@@@@:><<2212yyyiyiyt,>>>:::><,<,<<>:oXXXXXXX47800085.oOOO+O.13667777;;;;;;=* XXXXoX.1144643<XO++@OOX:,<22212",
"<,<,<<<<77787762#####@@@-:,<1222yyiiiiyy>>>:::::,<,<,,>:oXXooXXX47800085O.OOOOOO33667777:;;;;-=*  XXXXX.11466431oOO@@+OO:,<11221",
",<,<<<<288897762####$#@@-:<<1222yyiyiiyy>>>:>:::<,<,<<>-XXoOoooX47800085..OOO+O.23679777;;;;--=&X.XXoX..1144643<XOO@O+OO:,<22221",
"<,<,<<<<78999762###$%$#@;;><<222yyuiyiyy>>>>:::>,<,<,>>:oXoOOooo47880887OoO++OO+34679977;;;-;-=& .XXoXX.,3444431oOO+@+Oo>,<11122",
",<,<<2<288999764##$%%%$#;:<11222yyiipiyy,>>:::::<,<,<<>-oXoO+OOX45800085.O.+OOO.24699997;;;---=*. XXoX..13446431oOO@@OOO:,<12212",
"<,<,<<<<89999962##$%&%$#;:><1222yyyyiyyy>::;:;::><,<,>>:XooOOOoo47800077+.OO+OO+34799997;;;;;-=*.XXXXo..,1444431XOO@@OOo:><21212",
",<,<<2<188900964##$%&%%#;:>11112yyuiyiyr:;;;;;-;><<<<,>-XXo++OoX47780085.O++O+OO34999997:;;;--=&...Xo...<1366431oO@+++Oo:><22221",
"<,<,<<<189099964$$#%&%%#;;<<1222yyuiiyre;--=**==:>><,,>:oXoO+OOX47700887O..O+OOO34790999;;;;;--=X...... <1446431XOO@@OOO:,<11122",
"<<2<1112iuipputq+O+++++O-:><1112yiissyrwOOXXXXXX8qqetwq9OO+#@@+O78wweeq8...+++..34790997***&&&&$;;---**-<346643<ooO+@@OO:><22221",
"2<2<1122uiippitwO+O+@++O-:><1112iipipye0OXOOXXOX70qeewq9OO+@@@+O78qeewq8.O.+.+O+36799097&*&&&&&&:;;;----34466431oO@@+@OO>,<12122",
"<2<<1212uiipputwO+++++OO;:><1112yippite9OOOOOOXO68qetw09O++@@@+O78qweeq8..+++..O34790099**&&&&&&,>::;;;;34664431oO+@@O+O:,<12112",
"<<<21112yippputqOOO+@+OO;:><1112yippite0OOOO+OOX80qewwq9OO+@@@+O88qeeeq8O..++++.34790997**&&&&&&,:,:,,::4666643<OOO+@@OO:,<22221",
"2<<2<112yipppitwOOO+@++O-:><<122iipiiye0OO++++OX60qwrwq9OO+@#++O78qweeq8O..OO+O.34790998**&&&&&&>,,:,,:,66666431oO+@@OOO:,<11122",
"2<<22112yuippitw+O++@+OO;:><1112yipiite0OO++++OX68qereq9+O+##@+O78qeewq8..OOO..O44709097&&&$&&&%,,,,>,,,66666431OOO@@@OO;,<12221",
"<<<<<<21yuipputwOO+++++O;:><1112iipiiye0OO++++OO89qwwww9OO++@@++88qweeq0.O.+OO+.34700087&$$$$&$&:,,,,,,:66666431OOO@@OOO:,<21212",
"<22<22<2uiiipitwOO++@+OO;;><<111yipsiye0OO+@++OX88qwrwq9O++##+++78qweeq0..O.OOOO34790984$$$$##$$::,,:,,,66666431OOO@@@OO:,<12212",
"<<<<<<11uuiiiuuq+O++@++O-<<133348uuuu008+@+O@@@O---,,1,,oO+@@@+O--,<,,>:+++###++70eutre9OoXXXXXo:<111<111<11<,>:OO+++++O11366666",
"<<<<11<1uuiiiueqOO++@@+O<-<13343uu0uuu07+@@=#@+O--<,<1--OO++@@+O-->,1,,-+++##+#+80eture9oooXoXXX>><111111<1<1<>;oO+++++O12356666",
"<<<<<<11ruiiiurq+O+@+@+o-<<33334quuuu808+@##@@++-,<1<,,-OO+@+@+O-->,1,>:+++##@#+70etrrw8ooooooXX:><11111<111<,>;OO++#+OO12456666",
"<<<<,1<1uuiiiurqOOO+@++O1-<133340u0uuu08+@@##@+O---,,<1-OOO@@++O>->,,,,>+o+###@+80etuew8ooooOooX:><<<11111<<1,>:OO+#+++O<1366666",
"<<<<<<11ruuuiurqO++@@++O--333334uuuuu098+@##@@++-,,,,,--OO+@@@+O->>,1,,-++++##++8qettrq9ooOOOOoX:><111111<11<<>;oO++#++O12446666",
"<<<<<111uuiuiuuqOOO++@+o-31333340u0uuw08+@##@@+O----1-,-oOO+@+OO-->,,,,-O++##+#+70etyrq9ooO+@Ooo:><<11111<1<1<>:OO+#++OO12256666",
"<<<<<<<<uuiiiirqOO+@@+++1--414348uuuu0q9@@##@@+o=--,-,-=ooO++OOO--,,1,,>+O+##+@+80etyre9oooOOOOo:><11111<111<<>:oO+++++O<1456666",
"<<<<<<1,uuiiiurqOO++@@+@--133435uu0uuquq@@#@@+Oo==----==XoooOOO+-:,,,,,-O++####+7qettrw9oooOOOOo:><<11<111<<1<>:oO++#+OO12256666",
"1,<<1<11uipaaiuq=O@=+$@+---<<<<<,34444310qq08743oo+O+oOo===------>,,1,,:..ooooo.8qeture9++@@#@++;>><11<1qwwww096OO@@@@++11466666",
"<<<<<111uipaaiuw@@+==+$@---<>,<<33454444uqu00854ooo+++OO===----<>,,11,,:.X.oOooo8qruyte9++@#@@+O;>,1<11<qqwqq096O+@@@@+O11256666",
"<<<<<<<1uipppiuw@+@#$@@@---><,<<13434434wuuwq875+o+@@@+O----1-<-,,1,,1,:..ooOoo.8qeyytw9@+@@#@++;>,<<11<qwwwq096O++@@@+O11456666",
"<<<<<<11iipaaiuq=O=+$=$@-->>,<,<33343434uququ085++@@@@++--<<<<<1,1,1,,>>XXoooO.o8qryute9++@@#@++;><<1<11wwwqq087O+@@@@+O<2366666",
"1<<<<<11uuuaiuuw@$$$$=++---,,,<,13333435euuuur88+++$$#@+-<<<<<<<11,,1,>:...oooo.8qryute9++@##@++;>,11<<1wwwww096O++@@@@O11466666",
",,,<,<<1uuiiauuq@@@$$$#+-->,,,,<33133333ueuwerq8++@@#@++---11<1<,,,,,,--..oooooo8qeyyte9++@##@++;>,<<111wqwww086O+@@@@+O<1466666",
"-,<,,,,<uuiapiuq$@@$#@#@--->,,,,13133334uuueuqq8++@#$#@+-<<-<<1<,>:>:---.ooooo.o80eyure9++@@#@+O;>,<111<wwwew086OO@@@@+O12467676",
"--->->->uuiaiuuw@@@@==##--->,,,,11311333eeuuuuq8+@@@#@@O---<1<<1:::-----....oo..80ryyte9++@@#@++;>,<1<<1wqwqw086O+@@@@++12667776",
"@++@+++#47889873o+++#+++--,<1<<<<,,<<<<1uuuuuu57o.+OOOo.-=->-<--oXXXXXXX%&*****=wrisapyeO++@@++o::><1<<<rrtetw07O+@###@+79wetetw",
"+++++++#35788873+++++#++-->,<<<1,,1-,<<1uuuu0uu8o.oO+oO.=--><---oo+X++XX&%&***=-eyiaspyw++++@@+o::<<<<11errtewq9++####@+79wettet",
"++@@++++24778843+o++##++->-11<1<,,<<<<<1uuuuuu88oooOOooo--->-,-=XX+++O+X&***==--riaspsue+O++@++O-><<<1<<rrtetw09++@###@@70wttttt",
"+@####+@15777741+++##+++---<<<<<,,,,,<<1uuuuuuu8o.oOOOo.----<---+o+++++X*==;-;;:yassspye+++@+@+o::<<<<<1rretew09O@###@@+70etyttt",
"@#$###++14677641+O++#++O->,<<1<1,,,,<<<1u8uuuu88o.OOOOO.=--,>---X+++++XX*=;;::>>ppssspye+O+@@++o;:<<1<<<erertw07++####@@8qeryytt",
"@$$$##+#14667441oo++#+++---,<<<1,,,,<<<1uuuuu8u8o.OOOOoo==->>>-=OX+@++X+*-;:::>>ppasspyeO++@@@OO->,<<<1<rrrrtw09++####@+80etyytt",
"@$$##+++34477631O+++#+++--<,<<<<,,,,,<<1uuuuuu88oooO+oo.==---,-=X++++++X==;::>>>pssssaueOO+@@+OO:>,<<1<1erreww09O+#####@80eututt",
"@$$$$##+14664441++++##++,-,<<11<,,,,<<<18uuuuuu8o.oo+OO.=-->,---XO+++++X==;::>>>passspyw++++@@+o;:,<<1<<rrrrtw09++@###@@80rtuuyt",
"++@++++X14466431oO++++++----<<<<13133335uupppuu5++####@+780wew07.XXOoX..--->>:>>ipaaaiyeOOO++OOo:><11111ewewww06ooo+@oOO0etiiiii",
"X++@++XO23466441oO+++#+O--,,-1-<31333333uuppuuu8++####@+780wewq7..XXoX..=--::>>>ipaaaiywooO+++Oo:><<11<1weweww99XooOO@Oo0euiaaii",
"++@++X+X14467431OO++#+++---11<-131133335uuppuuu5+@+###++770weeq8..XooXX.=-::>:>>ipaaaiywoOO++Ooo:><11111ewewwq06ooo@O+oo0euiaiii",
"+++@++XO33666431o++++#++---<-<<<13313333uuppuuu8++##$#@+780wewq8..XoooX.=--:::>>ipaaaitwooO++Ooo;><<1111weweww96Xooo@Ooo0etiaiiu",
"X++@+oXo14466431oO++@++O---,-11<33131335uuppuu88++####@+770wwrq8X..Ooo..*-;:>>>,ppaaaiteooO++Ooo;><111<1wewwwq06Xoo+O@oo0wuiiaii",
"+++@++Oo13666431oO++++++--,-11-113313335uuppuu8u+@####@+770wrwq0.X.ooXX.*-;:>:>>ipaaaiteoOO+++oo:><<1111eweewq06XoOO@Ooo0wuiaiiu",
"++@++oX+24666631oO+@#+++---,<-<113313333upppuuu5+###$#++780wrwqqXXXooo..=-;;::>,iaaaaiywooO++OOo;>,11111wewewq06ooo@@ooo0euuaaii",
"X++@++OX23464431o+++#+++---,<1--33133331uupuuuu8++@###@+77qweweq...oo.X.*-->:>>>iaaasiyeoOO++Ooo:><<1111ewewwq06XooOO@Oo0euiiiii",
"X+O+oXXX90eere07..XOOoXX;-::>>,,411-4323upppuee0..ooOoo.--1-11<-OOO+++Oo=::>,,,<uuuuuuu0ooo++OoX;>,<<<<1:>:::;-=OO+#@++O9wtyiiuy",
"XO+O+XXX9weree09XXXoOOoX*-;>>,,>-1111112uupuuuq0o.ooooo.-<<<<<<-ooO@++OO=::>>,,<quuuuuq0ooOO+OOo;>,<<1<<:::>>:-=OO++#+++8wtyuiuy",
"XX+++XXX9weereq9XXXOoXXX--;:>>>,11111112uuppurq0.oooooo.---1<1-<OOO+@+Oo=::>,,<<uuuuuuq9ooO+OOoX;:,<1<1<:>::;;-*OO+#+@+O9qryuiuy",
"O++++oXX9eetrrq9.XXoOXXX*-:>>,,>14-11133uuuuuue0.ooooooo--<-<<<-ooO+++Oo=::>,,><uuuuuuu9ooo++OOX;>,<<<1<::>:>;-*OO+##+++9qryiuuy",
"ooO+OoXX9wettee9XXXXOOXX=-:><>,>11-13513uuuuuee8..oooo..--<<<1<<oOO+++OO=:::><><quuuuu00ooo++Ooo;:,<<<1<:::::;-=OO+#+++O90eyyuyy",
"oo+OOoXX9wtttt09X.XXOXXX=-->>,><11411-33uuuuueq0oooo+ooo-,<<<1--ooOO+OoX=::><><<uuuuuuq9ooo+OOoX;>,<1<1<:>>::;-*OO++#++O70wttttt",
"XOO++oXo9wtttte0X.XXXXXX=-::>>><-414-4-5uuuuue08.oooOo.o---,<<--oooooooX=-:>><><uuuuuqu0ooo++OOX;>,<1<<<::>::;-=OOO++OOo770eewwe",
"oO++OoXX9etytte0X.XXXXX --:><<>>111-1331ueuuuq08.oooooo.--<<<<<-ooooooXX-:>>>><<0uquuu00oXo++OoX;:,<<<1<:::::;-*OoOOOOOX67000009",
"+@###+OO,,13321<=******&:><<11114-4-334378787531$$=$=#$#-111111<:::=:=:>=::>:>:>-1121<-,ooO++Ooo;>><<<1<wqwqq99777677664..XoXXXX",
"+@###+O+:1132321;;;*****><<11111-3-43--355787331#$@=$=$@---11111,,>:>>>>:-:>:>>><1111<1-oOO+++OX;>,<1<<<wqqqqq9999999976.XXXXXX.",
"++@##++O:1133221:;;*;;;;<<1111114-4--4--57755311@$$==$=#-111131111,,<<<1->>>>>>><1121<--OXOO+Ooo;>><1<<<qqqqqqq9wwqqqq97X.ooooX.",
"+#+##+OO>1112222::::;;;:<<111<11-4-33-3355555531#$$$$=##---1131311111111:>>->:>><<-1<<,,XoO+O+Oo;>,<<<11qqwqqqqqwreeww09.ooooooX",
"+@##+++O>,111112::::::::11<111114-3--4-35575533<@$$=$=@@1-11313131131111->>>->-,,<<<<,--ooOO+OOO;>,<1<<<qwwqqqq0reeewwq9XXoooOoX",
"+@@##++O>,112221::::>:::<<<<<<<<-3-53-4-7555531<@$@==$=#-<-1<11111111111>>>>,>,,<<,<,,,-XoO++OOX;:,<1<1<qqqqqqq9qqqqqq97..XoooXX",
"+####++O:,111122:::::::-<>>>>>><3--4-4-36575533<$$=$$=@#-<-1-31111311131>>>>>>>-,,<,<,--XoO+++OX;>><<1<<qqwqqq9799990774..XXXoX.",
"++##@+OO>,111111:>:>>:--::::::::--3-3-3-6575551<@$#==#$@--<-<--1<<113131>->>->,-<,,<,<<-oXO++OOX;>,,<<<1qqqqq97677777743 ...XX.X",
"oOOOOoXX;:>>,,><rerree07oooOOOoO:>,<1<1<57555311#$%%&%%$oooooooo85u5u5u5>><,<<,<eeueu0q8XXoOOOXX--;>,>>>6666442<XXoooXX.$&*-=-==",
"XOOOoXX.-:><,,<<rrrrre97ooOOOOoo;>,<111<55755511@$%&&%%%OooOoooo7u5u5u5u,,,<,<<<eeeeueq8XXoOOOOX-->>>>>,6664421,XoOOOOX.***-----",
"XOOOOoXX->><,<,<rrttre96oOO++OOo;>,<<<1155575311$$%%&&&%OO+Ooooo1uu7u7u5<<,,,<<<eurreeq9XXoO+OoX*;>>>>>>6647441<XOO+OOoX*--;;:>:",
"XoOOooXX-:>>,<<<rtttrr09OO++++OO;,,<111<77555311#$%&&&&&@+++OOoO585u7u7u<<,<,<<1reueeeq8XXoOOOXX--:>>>>>6674431<oO+++OoX--:>,>>,",
"XooooXXX;:><<<<<rtyyytq9+++@@@+O;>,<1<<15555551<#@%%%%&&@@@+OOOo5uu7uuu7<<,<<<<1rruuurq0oXOOOOoX-;;>>>>>6664441<oo+++OoX-;>>>><>",
"XXooXXX.-:><><<<ttyyyte9O++@@+OO;>,<<1115757533<##$%%%%%++@+@OOo557uu55u<<<,,<<<rrrrerq9oXoOOOXX=-:>>,>,667643<,ooOO+OoX*;;><<<<",
" XXXXXXX;:><<<<<tyyiite9++@@@++O;>,<111<5555531<@##$$%%%++@++OoO75u755u5<<,<,<<1rrrureq9XXoOOOoX--:>>>,>6666441>XXoOOoXX--;<,<><",
"  XXXX X:>>><<<<tyiyytq9O++@@+OO:><<1<<<57755531####$@@@O++@+OoO7u7uuu5u<<<,<,<,rrerreq0XXoOOOoX=;:>>>>,6666431,XXXoooXo-;>>,><>",
"%******=:><<,<<179999943OO++++OO=;::>>>><<<<,,>:------=-OO@@++OO:,<1<11<31111111<<<<<,:-..XXXXX.-;:,,,,,<<<<,>;-**==-==*12466666",
"====-=-;>,<<<<<179999743OO++@+OO--:>>>>><<<<<<,>:::::--=OO+@@+OO:,<<11<111111111,<<<<,,-..XXXX..;;>>,,,,<<<<<,>:---;--;;24646666",
";-;;;;;;><,<<<<<79999743OO++@++O-::::>>:<<<<<<<,,>>>:::-OO+@@OOO:>,1,11,11<11111,,<,,,::..XXXX..-;,,,,,,<<<<<<,,::;:;:;:46666666",
"::::;:::<,<,<<<177997743OO++++++;:>>>>>><<<<<<<<,,,,,::-OOO+++OO:>,1<<<<11111111,,,,,>:=..XXoXX.-;>,,,,,<<1<<<<,>>>>>>>>44666666",
":::>::::,<,<<<1<77999641OO++@+@+:>>>>>:><<<<<<<<,<<,,>::OO@@@+OO::,,<<<<1<111111,,,,,,>:..XXXXX -;:,,,,,<<<<<<<<>>>>>>>,66666666",
">:::::::<,<,,<<177777631oO++@@@+>>>:>>>><<<<<<<<<<,<<,:-OO+@@+Oo:>,<,1<<1111<111,,,,,,:=..XXoXX ;;,,,,,,<<<<<<<<>>>,>>>>66666666",
"::::::::,<<,<,<<6777643<oO++@@@@:>>>>>>><<<<<<<<,<<,,>:-OO++++OO:>,1<<<,11111<11,,,,,::=...XXXX =::,,,,,<<<<<<<<>>>>><>,66666666",
":::>::::<,<<,<<<6766643<oO+++@@@>>>>>:>,<<<<<<<<<,,<,:::oO@@@+Oo:,,,<<<,11111111,,,,,,:=..XXXXX ;;>,,,,,<<<<<<<<>,>>>>>>66666666"
};
