/* XPM */
static char *_991_81cd9ff0c5f9373a629ca29d6dcaf69568eb1f7d812bfefcc2933a7d49056abf[] = {
/* columns rows colors chars-per-pixel */
"128 128 38 1 ",
"  c #331810",
". c #3F1E15",
"X c #411E15",
"o c #462B23",
"O c #492C23",
"+ c #4E312C",
"@ c #56332C",
"# c #5C342C",
"$ c #56433E",
"% c #5C443F",
"& c #60463F",
"* c #5F4540",
"= c #574E4B",
"- c #5A4F4C",
"; c #5D514E",
": c #654740",
"> c #61534F",
", c #655551",
"< c #6A5752",
"1 c #6D5853",
"2 c #735B56",
"3 c #785D57",
"4 c #7C5F58",
"5 c #7E6059",
"6 c #6E6662",
"7 c #6F6863",
"8 c #706764",
"9 c #726A65",
"0 c #766D68",
"q c #796F6A",
"w c #7D726D",
"e c #80756F",
"r c #827670",
"t c #857972",
"y c #8A7D76",
"u c #8C7F78",
"i c #8E8179",
"p c #94857D",
/* pixels */
"########::::::::::::%%%%OOOOOOOOXXXXXXXXOOOOOOOOOOOOOOOO        OOOOOOOX****::::::::::::########::::::::XXXXXXXX########&&::::::",
"########::::::::::::%%%%OoOOOOOOXXXXXXXXOOOOOOOOOOO#OOOO        OOOOOOOO****::::::::::::########::::::::XXXXXXXX########:&::::::",
"########::::::::::::*%*$ooOOOOOOXXXXXXXXOOOOOOOOOOOOOOOO        OOOOOOOO*$**::::::::::::########::::&&::XXXXXXXX########::::::::",
"########::::::::::::%%%*OOOOOOOOXXXXXXXXOOOO+OOOOOOOOOOO        OOOOOOOO****::::::::::::########::::&2::XXXXXXXX########::::::::",
"########::::::::::::%%*$OoOOOOOOXXXXXXXXOOOOOOOOOOOOOOOO        OOOOOOOO%%%%**:*::::::::########::::&&&&XXXXXXXX########::::::::",
"########::::::::&&&&*%$*ooooOOOOXXXXXXXXOOOOOOOOXOOOOOOO        O+OOOOOO$%$%****%:::::::########%%%%&&&&.XXXXXXX########:::&::::",
"########:::::::%&%%%%*$$ooOOOOOOXXXXXXXXOOOOOXOOOOOOOOOO        OOOOOOOO%$%$%%**%&::::::#########=%%%*::.XXXXXXX########:&&:&&::",
":#######::::::*%&%%%%$$$oooOOOOOXXXXXXXXOOOOOOOOOOOOOOOO        OOOOOOOO%$$$%%%%%&&:::::########**%*%:#&XX.XXXXX##@@####**&&&&&&",
":::::::::::::%%%@@@@@@@+$$$$%*%%21111:<1eeeeeeee111<,,,,XXXXXXXXOOOOOooO++@@@@@@$*%*::::::::%%%%@@@@@@@@OOoOoOoo%%*%****@@@#@@@@",
"::::::::::::::%%@@@@@@++$$$$%%%%4:11:e1<eeeeeeee111<,,,,XXXXXXXXOOOOOOOo@@+@@@@@*$**:::::::*%%%%@@@@@@@@OOooOoOO%%%%**$*@@@@@@@@",
"::::::**:::::$%%@@@@@+@+$$$$%%%%535:2<<1eeeeeeyt111<,,,,XXXXXXXXOOOOOOOO@@@@@@@@$***::::::::%%%%@@@@@@##OOOOOooo$*%%*%**@@@@@@@#",
":::::::*::::*%*%@@@@@@@@$$$$&&&&:5553333eeyyteuu3331<<,<XXXXXXXXOOOOOOoO@@@@#@@#****:::::::**%%%@@######OOOOOOoO%%%%%%**@@@#@@@@",
"::&&&&*****%%%%%@@@##@@@%%%&::::55555555upppppppee5:532<XXXXXXXXOOOOOoOO@@@##@@@$***:::::::*%%%%@@######OOOOOOOO%*%%***=@@@@#@@@",
"&&&&#&****%%%%%%@@@@#@#@%%%%::::55555555uuppppppe:e:4:<,XXX XXXXOOOOoOOO@@@@#@@@*$$***:#****%%%%@@@#####OOOOOOOO*$*$*=*@@@@#####",
"&::&****$*$%%%%%@@@###@@%**%::::55555555pppppppp354e2<<,XXXXXXXXOOOOOOoo+@@###@@************%%%*@@######OOOOO@OO%%%$=@**@@#@####",
"&:#&*****$*%%%*%@@@@#@@@%%%&::::5555555epppppppp354::2,,XXXXXXXXOOOOOOoO+@@@#@#@$******$****%%%*@#######OOOOOOOO%*%****#@#######",
"@@@@@###@@@@@@@@##@###@@wwwtpppp55555555#::::::::::*$%**,<:1e:e:*%%%%$$$@+###@@@@@@@@@#@@@@@@@@@########X#OOOOOO#@@@@@#@#@######",
"@#@@@####@@@@@#@@@####@@wwwtuppp55555555::::::::::::*%*#,121:3:5%%%%%$$$+@@###@##@@@@@@@@@@@@@@@########OOOOOOOO#@@#@@@@########",
"#@@@#@###@@####@######@@wwwtpppp55555555::::::::::::**::<1112:4:%%%%%$$$++@####@@@@#@#@@#@@@@@#@########OOOOOOOO#####@##########",
"####################@#@@qwwrpppp55555555::::::::::::**:#12:e:e5:***%%$$$@@#####@@#@@@@@#@@#@#@@#########OOOOOOOO################",
"###################@##@@0qwrpppp55555555::::::::::::::::e233:e:5:::*%%%%#@################@#############OOOOOOOO@##@############",
"###############@@@@@@@+@990ruppp55555555::::::::::::::::23:e55e5::::*%%%@@@#############@@@#@@@@@@@#@##@OOOOOOOO##@@@@#@@#@@###@",
"#############@@@@@@@@@@+99qepppp55555545::::::::::::::::55e5e5ee::::*%%%@@############@@@@#@@@@@@#@@@@##OOOOX##X@@@#@#@@@@@@@@@@",
"#############@@+@@@@@@@@99qepppp555555ee:::::::::::::::#5555:e:e:::**%%%##############@@@@@@@@@@@@@@@@@#OOOO#XXX@@@@@@@@@@@#@@@@",
"OO@OOOOO######@@$%%%*%%%*$$:::::#####################################@@@XXXXXXXX######@@$$$%%%%%eqeqeqeeeeeeeeee::e:e&:e&%*%%%%%",
"OOOOOOOO####@#@+$$$%%%%%$*%:::::####################################@#@@XXXXXXXX#####@@@$$$$**%%qeeeqeeqeeeeeeeeee::::e:%%$*%%$*",
"OOOOOOOO#####@@@$%%%%%%%:%::::::####################################@@#@XXXXXXXX#####@@@$$%$*#**eeeeeeeeeerteeee:::ee::4%%%%*$*%",
"OOOOOOOO####@@@@$%%**:*:::::::::#########################@@#########@@@@XXXXXXXX######@@%$%%****rtrtttteytyueeee:ee::ee:&:::::::",
"#OOOOOO#####@@+@$**::*:::::::::*#@##@#@#####@@##########@@@@@@@@#@@@@@+@.XXXXXXX#####@@@%%%**:::ppppupppppppppppee555555::::::::",
"OOOOOOOO####@@@@$$%%%%*%%%%%*%*%@@@@@@@#####@@@@########@@@@@@@@@@@@@+@+..XXXXXX#####@@@%%%*::::ppppppppppppppppe:555555::::::::",
"OOOOOOOO####@@@@$$$$%%%%%%$*%%$*@@@@@@@@@@@@@@@@@####@@@@+@#@@@@@@#@@+@@..XXXXXX###@@@+@$$%*::::ppppppppppppppup5555e5ee::::::::",
"OOOOOOOO#####@@@$$$%%%%*%%*%%%%%#@@@@#@@@@#@@@@@+####@@++@@@@@@@@@@@@@+@..XXXXXX##@@@+@+$%%*::::ppppppppppppppuy5555:e:e::::::::",
"OOOOOOOO########@@@@+@@@@@@@@@@@OOOoOoOOoOOoOooo@@##@@@@...XXXX.        XXXXXX..,,,<<<,,<23:5555::::::::########################",
"OOOOO#OO########@@@@@@@@@@@#@@@@OooOOooOOOoOOooo@@###@@@....XXXX        XXXXXX..,,,<2<<<<:145555::::::::########################",
"OOOO#XOO############@@@@@@@@@@@@OoOOoOOOooOoooOO@@@#@@+@X.XXXXXX        XXXXXXX.,;<<<<:2<<245555::::::::########################",
"OOOOOOOO#############@#########@OOOOOOOOOOOooooo@@@@@@@+.XXXXXXX        XXXXXXX.<,:,223:23455555::::::::########################",
"OOOOOOOO########################oOOOOOOOOOOooooo@++@+@+@...XXXXX        XXXXXXXX<<<24434e4445555:::#::::########################",
"OOOOOOOO########################OooOOooOOoOOoooo+++@++++.....X.X        XXXXX..X<1124444233e5555:::e::::########################",
"OO#OOOOO#######################@OoOoOooooooooooo++++@+++..XXXX.X        XXXXXX..<22255555544453e::::::::#######@######@#########",
"OOOOOOOO#######################@OooooooOoooooooo++@@++++...X.X..        XXXXXXX.<<1255555444444e::::::::######@@######@#########",
"XXXXXXXX########        OOOOOoOo,,<:2:24eqee9826666886888qwwq989XXXXXXXX        @@#@########################@#@@OoooOoOO########",
"XXXX#XXX########        OOOOOOoo<,<<1e::eeeeeeq990090qqwewwwq888XXXXXXXX        @@@@########################@#@@oooOOXOO########",
"XXXXXXXX########        OOOOOOOO<,212254errrtrrrrrtyeerrrrreq888..XXXXXX        @@@#########################@@@@OooOOOOO########",
"XXXXXXXX########        OOOOOOoo<<:4:e:5uupiiiiiiiipuiuuuuuyeq0qXX.XXXXX        @@#@########################@@@@OOOOOOOO########",
"XXXXXXXX########        OOOOoooo<<135555pppppppppppppppppppireeq.X.XXXXX        @@@@##@#@#@##@@############@@@@#oOOOoOOO@@@#####",
"XXXXXXXX########        OOOOoooO<<<3e:55ppppppppppppppppppppreq0XX.XXXXX        +++@##@@#@@@@@#@############@@@@OoOOOooo+@@@####",
"XXXXXXXX########        oOOOoooo,<134eeepppppppppppppppppppirq53...XXXXX        +++@@@@@@@@@@@@@############@@@#oOOOoOoo@++@@###",
"XXXXXXX#########        oOOOoooo,<<3443epppppppppppppppppppirq93...X.XXX        +++@@@@@@@@@@@@@##########@@@@@OooOOoooo@+@@@###",
"##O#XOOOXXXXXXXXXX      :<<<<<<<%%*:::::::::::::::::::::5555:::e88qwwwww<<<1<,-=oooooooooOOoOOOX@@@##@@@oooOoooo@@@#@@++oooooOOo",
"#XX#OOOOXXXXXXXXXX      <2<<1<<<%%*:::::::::::::#e::::::5555:e::88qwwwww111<1,;=ooooooOooooOOOOO@@@###@@Oooooooo+@@#@@+@ooooooOO",
"XOOOOOOOXXXXXXXX        :::e2111***:::::::::::::::::::::5555ee:eqqwwewee11111,;;ooo+oooOOOOOoOOO@@@#@@@@OoOOoXoo+@@@@@@+ooooOooO",
"#XOOOOO#XXXXXXXX        :e::3333*:::::::::::::::::::::::55555:5:wrrrrrrt222222,,oooXoooOOOOOOOoO@@@@#@@@oOOOOOoo@@@@@@++oooooOOO",
"O#OOOOOOXXXXXXXX        &e:e55:e::::::::::::::::::::::::555555e:uuiiiippe:44422<OOOOOOOOOOOOOOOO@@@@@@@@OOOoOooo@@@+++++ooOOOOOO",
"OOOOOOOOXXXXXXXX        :ee:55e:::::::::::::::::::::::::55555e:epppppppp5e444211OOOOOOOOOOOOOOOO@@#@@@@@OoOOOOoo@@@@+@++oooOOOOO",
"OOXOOOOOXXXXXXXX        e::4552e::::::::::::::::::::::::555555e:pppppppp55234211OOOOOOOOOO+OOOOO@@@@@@@@OoOOOOOO@@++@+++ooOOOOOO",
"OO#OOOOOXXXXXXXX        ::e455ee::::::::::::::::::::::::555555eepppppppp55e3e211OOOOOOOOOOOOOOOO@#@@@@@@OOOOOOOO@@@++++@ooOOOOOO",
"OOOOOOOOXXXXXXXX        #&&&::::::::::::::::::::::::::::::::::::::::::::#:::::::        OOOOOOOOOOOOOOOOOOOOOOOOOooooooooOOOOOOO",
"OOOOOOOOXXXXXXXX        &&&&:::::::::::::::::::::::::::::::::::::::::::::::::##:        OOOOOOOOOOOOOOOOOOOOOOOOOoOoOooooOOOOOOO",
"OO#XOO#OXXXXXXXX        **&&:::::::::::::::::::::::::::::::::::::::::::::::::*:*        OOOOOOOOOOOOOOOOOOOOOOOOoOOOOOOOOOOOOOOO",
"OOOOOOOOXXXXXXXX        *#&&::::::::::::::::::::::::*::::::::::::::::::::::::***        OOO+OOOOOOOOO+OOOOOOOOOOOOOOOOOOOOOOOOOO",
"OOOOOOOOXXXXXXXX        ***::::::::::::::::::::*::******:::::::::::::::******$*$        OOOOOOOOOOOOOOOOOOOOOOOOOOOoOOOOOoOOOOOO",
"OOOOOOOOXXXXXXXX        **$*::::::******:::::::*::*#%%%%*:::::::::::::********$$        OOOOOOOOOOoOOOOOoooOXoooOOOOoOOOOOoOOOOO",
"#OOOOOOOXXXXXXXX        **$*::*%:*****%%:::::::*#:**%%%*%*:*:::::::::*%%$%*%%$$$        OOOOOOOOoOOooOOOooOO+OoooOOOOooooOOOOoOO",
"OOOOOOOOXXXXXXXX        ***$::%*:*****%%***:::#*::**%%%%%%%:::::::::**%$%$$%%%%*        OOOOXOOOOOOoOoooOOOOOOOoOOOOoooOOoOOOOOO",
"O@OOOOOOXXXXXXXXXXXXXXX.%%%&&&&%@@@@@@@@%%%:::&%@@@@@#@@%%%&:::::::::*#%++@@@@@@eeeeeeeeeeeeeeeeeeeeeeeeee5eeeee:53::e::e::e#e::",
"OOOOOOOOXXXXXXXXXXXXX.XX%%%&&%%%@@@@@@@@%%%&:&%%@#@@@@@@%*%&::::::::***%+@@@@@@@eeeeeeeeeeeeeeeeeeeeeeeeeeeeeeee5:&e4:e:e:e:e::e",
"OOOOOOOOXXXXXXXXXXXXXX.X%%%&&&%%@@@#@#@@%*%%:%%%@@@@@@@@%%%%::::::::**%$@+@@@@@@uyuueeetteeeuuuueerytteeytppetty5:e::e5:::::e:e:",
"OOOOOOOOXXXXXXXXXXXXXXX.%%%&&%%%@@@@@@@@%%%*:%%%@@@@##@@%%%&::::::::**%%@@@@####puupetuuuuyepuuptuuuuuytppppyuuu5e:e5555eeee5e:e",
"OOOOOOOOXXXXXXXXXXXXXXXX%%%%&%%$@@@##@@@%%%%*%%%#@@##@@@%%%%:::*::****%%@@@#####ppppppppuuppppppppppupppppppppppe555555555555555",
"OOOOOoOOXXXXXXXXXXXXXX.X%*%%%%%%@#@####@%%*%%%%%@@@@@@@@%*%%::*%::%%%%$$@@@#####ppppppppppppppppppppuppppppppppp5555555555555555",
"OOOOoOOOXXXXXXXXXXXXXX.X%%%$%%%%@@@###@@$%%%%%%$@@@##@@@*%%&:%*%*%%%%$$$@@######pppppppppppppppppppppppppppppppp5555555555555555",
"OOOOOOOOXXXXXXXXXXXXX.X.%%$%%%%&@@####@@**$%%%%%@@@@@#@@%%%&:%%$%$$%%$$%+@######pppppppupppppppppppppppppppppppp5555555555555555",
"11111111        XXXXXXXX@@@@@@@@@######@@@@@@@@@%%$%%*%%%%%::%%$+@+@###X<<1343ee4:::::::&&::::::5:::::::::::::::::::::::##::::::",
"1111111<        XXXXXXXX@@@@@@@@########@@@@@@@#%%%%%%%%%*:::%%%@@+#####<1234ee:::::::::&&2:::::::::::::::::::::::::::::::::::::",
"21211111        XXXXXXXX@@@@@##########@@#@##@@@$$*%*:&&::::*%%%@+O##O##123455:e::::::::&:::::::::::::::::::::::::::::::::::::::",
"33333323        XXXXXXXX@@@@############@###@@@@*%*%::::::::*%*%@#######33445555:::::::::::::::::::::::::::::#5:::::::::::::::::",
"5555eee:        XX.XXXXX@@@@##################@@%%%%%%::::::&%%%@@######55555555::::::::::::::::::::::::::::::::::::::::::::::::",
"5555e::e        ..XXXX..+@+@@################@#@%*$%%%*%%&%%%%%%@@@#####55555555:::::::::::::::::::::::::::::::::::::::::**:::::",
"555555e5        ..X..X..++@@@@@@@@@@#@########@@*$$*%%%%%%%%%%%%@@@#####55555555::::::::::::::::::::::::::::::::::::::**%*:*::::",
"55555555        ..X.XXX.@+@@@@@@@@@@@@@@@#####@@%**%%%%%%%%%%%%%@@@@####55555555:::::::::::::::::::::::::::::::::::::**%%%:#::#:",
"XXXXXXXXXX      &&&#&%%%<<<<1111wwww0000@@#####@@@@@@@@@@@@#@@@@XOOOOOOO########4:::::::::::::::::::::::::::::::::::***%@@@@@@@@",
"XXXXXXXXXX      &&&&%%%%<1111<11wwwq7070@@#######@@@#@@@@#@@@@@@OOOOOOOO########::::::::::::::::::::::::::::::::::::*%%%@@@@@@@@",
"XXXXXXXXX       &&&:&%%&12111111wwwq7770@@@#######@#@@@@@@#@#@@@OOOOOOOO########::::::::::::::::::::::::::::::::::::*%%%@@@@@@@#",
"XXXXXXXX        :&::&&&&22222222ttwq9790@@##################@#@@OOOOOOOO########::::::::::::::::::::::::::::::::::::*%%%@@#@@#@@",
"XXXXXXXX        ::::::::55554443iiiwq0qq@@#####################@OOOOOOOO########:::::::::::::::::::::::::::::::::::::*%$#@@@@#@@",
"XXXXXXXX        ::::::::55555555pppiwwqw@@############@@#####@@@OOOOOOOO########:::::::::::::::&&&%%%&%%::::::::::::#*%%@@@@@@#@",
"XXXXXXXX        ::::::&&55555555pppitwwq@@@#####@@@@@@@@#@###@@@X+OOOOOO########::::::::::::::&%%%%*%%&&&::::::::::::%%%@@#@@@@@",
"XXXXXXXX        ::::::&&55555555pppiww09@@@@@@@#@#@@@@@@@@##@@#@OOOOOO@O########:::::::::::::&%%%%%%%%&&&&::::::::::*%%%@@@@@@@@",
"XXXXXXXX        #OOOOOOO::::::::55542<,,799wwwwwwwww0007$%*:*$*$OOOOOOOOOOOOOOOO:::::::::::::%%*@@@@@@@@%*&:::::::::&%%*******@=",
"XXXXXXXX        OOOOOOOO::::::::55531<,,990wwwwwwwww0779$$%:**$*OOOOOOOOOOOO@OOO:::::::::::::%%%@@@@@@@@%%&::::::::::&%%********",
"XXXXXXXX        OOOOOOOO::::::::55552<<,900wwwwwwwww0777%%*::**$oOOO+OOO@OOOOOOO:::::::::::::%%*@@@@@@@@%%$::::::::::::%********",
"XXXXXXXX        OOOOOOOO::::::::5555221<0wwwwwwwrwwr0999$%$:**$*OOOOOOOOOOOOOOOO:::::::*::::&%%%@#@#@@@@%%*:::::::::::::*:::::*:",
"XXXXXXXX        OOOOOOOO::::::::55554221rwrtrrttititww0w%%%:*$*$ooooooooOOOOOOOO::&:::**::::%%%%@@@@#@@@%%%*::::%&&&&&%&%&&&*&&&",
"XXXXXXXX        OOOOOOOO::::::::55555542yyiiippppppptww0$%%%*$$$ooooOoOoOOOOOOOO::&&::**::::%%%%@@##@@@@%%*:::$%$$$%%%%%*%%%%%%%",
"XXXXXXXX        OOOOOOOO::::::::55555555pppppppppppptw09$$$%$$**o.ooOOooOoOOOOOO:#:#******:::%%%@#@@@@@@%%%*:%%$$$**$*%%%%%%*%%%",
"XXXXXXXX        O#OOOOO#:::::::&55555555pppppppppppptw00$$$%**$@oooooooooOOOOOOO::::#****$*::%%&@@#@@#@@%%*::%*$%$$$*%%%%%%%%%%%",
"XXXXXXXXXXXXXXXXXXXXXXXX########################5#5#:5##&:21<:--X ...X..OOOOOOOO@@@@@@+@$$**:***&&%*%%%%%%&:%%%$@+@@@@@@@@@@@@@@",
"XXXXXXXXXXXXXXXXXXXXXXXX###############5#########5#5:#::e&1121>>.....X..OOOOOOOO@@@@@+@@%$**:::*::&%%%%%%*::&%%$@@+@@@#@#@#@@##@",
"XXXXXXXXXXXXXXXXXXXXXXXX########################55##:#::e&4:11,>........OoOOOOOO#@@@@+@+$***::*::**%*$&&%:::&%%%@@@@#@#@@@#@#@@@",
"XXXXXXXXXXXXXXXXXXXXXXXX##########################5#:::::335221,..X.XX.XOOOOOOOO###@#@@@*$**:***::::::::*:::&%*%@@@#############",
"XXXXXXXXX XXXXXXXXXXXXXX########################::::::::5555555:XX.XXX.XooOoOOO@#####@@@$$$%*****::::::*&%&&$*$$@@@@@###########",
"XXXXXXXXXXXXXX XXXXXXXXX########################::::::::55555555.X.X.XX.OOOOOOOO######@@$$$$$***$$*:::*$$%$*$$$$@@@@@@@#@#@#@@##",
"XXXXXXXXXXXXXXXXXXXXXXXX##############:#########::::::::55555555XXXX.XXXOooOOOOO#####@@@%$$%*$**%$%:::%$$%$$$$$$++@@@@#@@@@@#@@@",
"XXXXXXXXXXXXXXXXXXXXXXXX########################::::::::55555555..X.XX.XoOoOOOOO#####@@@$$$%*$$#$%%*:%%$$$$*$$$$+++@@@@@@@@@@@@@",
"e49eeee0e9eeeeee111<,<><#XOOOOOO################################        OOOOOOOO########@@@@@@@@$%%::$*$@@+@@+++--,:::e:wwwwwwww",
"e20eeeeeee9eeeee111<<>,>OOOOOOOO###############:################        XOOOOOOO##########@@@@O@$%%%:%$*@++@@@++->><:e::wwwwwwwr",
"tyrryyttyyetuyyu222<<><<OOOOOO#O################################        OOOOOOOO############@@@@*$%&:**$@@@@@@@@>><<e::ewwwwwwwr",
"uuuuuuuyuuuuuuup33431<1<OOOOOOOO################################        OOOOOOOO#############@@@%%%&:%%%@@@@@@@@,,:1:ee:ittttrit",
"uuyytytyuupppppp4ee:21<,oOOOOOOO################################        OOOOOOOO#############@@@%%%&:%%%@@@@##@@<1124454pppppppp",
"tteeeeeeuuppppppe3:e31<,oooOOOOO#######################:########        OOOOOOOO#############@@@%$$%%$%$@@@####@<1114555pppppppp",
"ree0e0eettuupppp55e:31<,ooOOXOOO################################        OOOOOOOO#############@@@$$$$*$$$@+@@#@@@1112:e3epppppppp",
"eeeeee0eeetupppp555e311>ooOOOOOO################################        OOOOOO###############@@@$$$*$*$$@@@@##@@<111e:eepppppppp",
"*%%%*$$*:e:4e:eeuppppuye::#e:#:2oOOOOOOO################OOOOOOOo        OoOoOOOOOOOOOOOO#####@@@+@@@@@@@@@###@#@*%%*::::::::::::",
"%%%%%**$2:545e::uppppuyy:ee::e:<OOOOOOOO################OOOOOOOo        OOOoOOOOOOOOOOOO######@@@@@@@@@@@@####@@%%**::::::::::::",
"*%**%%$*:e:e55eeppppppuue:ee<<<<OOOOOOOO################OOOOOOOO        oOoOOOOOOOOOOOOO######@@@@@@@@@#@#####@@****::::::::::::",
"*:***%**2:4:5544pppppppu555:2<<<OOOOOOOO################OOOOOOoo        oooOOOOOOOOO@OOO########@@@#@##@######@@$*$*::::::::::::",
":::::*#*:1112122uyeeyyey:e3e31<1OOOOOOOO################OOOOOOoo        ooooOOOOoOOoOOOO###@###@##@###########@@**%%*:::::::::::",
":::::***31111111eeeeeeee5:e:3211OOOOOOOO################OOOOoooo        ooooOOOOOOoOOooO##@#@@#@@@@@@@@@#######@*#%*::::::::::::",
":::::***11111111eeeeeeee33ee4111OOOOOOOO###############@OOOOoooo        ooooooOOOooOooOo#@@@@@@@@@@@@@@@@@####@@*%%**:::::::::::",
"::::::**<<1<1<1<eeeeeeeee:244111OOOOOOOO##############@#OOOOoooo        oooooOoOoOOoooOO##@@@@@@@@@@@@@@@@@###@@%%%%::::::::::::",
"::::::::*%%#**%%%*%%%%%%########OOOOOO@OOOOOOOOO########        ooOOXOOO>>#11111wwwwwwwwwwwwwwwwwwwwq099oooOOOOo%%%&::::::::::::",
"::::::::****%%%%%*$*%%$%#X###O#+XOOOOOOOOOO#OOOO########        ooOO#OOO<<e:2111eewwwwwwwwwewwwwwwwww988oooOOOoO%%%&::::::::::::",
":::::::*::::********$*%%#######+OOOOOOOOOOOOOOOO########        ooXOOOOO212:e:e:yruptrrrrrrrrreerreew989oOoOOOOO%%**::::::::::::",
"::::::::::::*::::****%%%######+#OOOOOOOOOOOOOOOO########        ooOOOOOOe2eee:eeppppppppppuupuppuuyytw09ooOOOOOO#**:::::::::::::",
"::::::::::::::::::::*%%%@@@###@@OOOOOOOOOOOOOOOO########        oooO#OOO5555:555ppppppppppppppppppppprwwOoOOOOOO*%%%::::::::::::",
"::::::::::::::::::::*%%%@@###+#@OOOOOOOOOOOOOO@O######@@        oooOX#OO5555e555ppppppppppppppppppppitwwOoOOOOoo$%$%:::::::::::1",
"::::::::::::::::::::*%**@@@###@@OOOOOOOOOOO#OOOO#####@@@        oooO#X#X55555555ppppppppppppppppppppptreOOOOOOoo$$$%::::::::::::",
"::::::::::::::::::::*%*#@@@##@#@OOOOOOOOOOOOOOOO#######@        OoOOX#XX55555555ppppppppppppppppppppputrOOOOOOOO****:::&::::::::"
};
