/* XPM */
static char *_6367_bd92da7d0d6bea9300659856e93436b3de8b71e4973184958c19afe30592c116[] = {
/* columns rows colors chars-per-pixel */
"128 128 37 1 ",
"  c #331810",
". c #3F1E15",
"X c #411E15",
"o c #472C23",
"O c #492C23",
"+ c #4F312C",
"@ c #56332C",
"# c #5C342C",
"$ c #56433E",
"% c #5C443F",
"& c #60463F",
"* c #5F4540",
"= c #5C4F4D",
"- c #5D504D",
"; c #644740",
": c #61524F",
"> c #655551",
", c #695652",
"< c #6D5853",
"1 c #735B56",
"2 c #795E57",
"3 c #7C5F59",
"4 c #68625E",
"5 c #7E6059",
"6 c #6C6461",
"7 c #6F6864",
"8 c #736A66",
"9 c #766D68",
"0 c #796F6A",
"q c #7D726D",
"w c #80756F",
"e c #827670",
"r c #857973",
"t c #897C76",
"y c #8D7F78",
"u c #8E8079",
"i c #95867E",
/* pixels */
"XXXXXXXXXXXXXXXX>>>><<<<qqqqqqqqwwwwwwwwwwwwwwww;<;w;;;w%%%%#*$$ooooOOOOXXXXXXXX        XXXX....+++#@@@#wwwwwwww##X###@@;<<<,>>>",
"X..XXXXXXXXXXXXX>>>><<<1eqqqqeqqeewwwweewwwwwwww<<;w;w1;%%%%*$$$ooooOOOOXXXXXXXX        XXXXXX..@++@@@@@wwwwwwww#####O@@<1<,,>>>",
"XX..XXXXXXXXXXXX,,,<1111uttttuuuyyyywttyttwwtryy2;;;w;w;%%;;%$%$OOOOOOOOXXXXXXXX        XXXXX.XX@@@####@ytyywwwr########<<<<,>:>",
".XXXXXXXXXXXXXXX<<<15555iiiiuiiuiiiiyyyyyiyyiiiiwwww5;ww;;;;**%%OooOOOOOXXXXXXXX        XXXXX.XX@@@#####iyyietyy########21221,>>",
"XXXXXXXXXXXXXXXX,<<55555iiiiiiiiiiiiiiiiiiiiiiii55555555;;;;;%**OOoOOOOOXXXXXXXX        XXXXX ..+@@#####iiiiiiiy########35w;21<,",
"XXXXXXXXXXXXX...,,,15555iiiiiiiiiiiiiiiiiiiiiiii55555555;;;;;*%*oooOOOOoXXXXXXXX        XXXXXX..@@######iiiiiiii########555ww;<<",
"XXXXXXXX........>,155555iiiiiiiiiiiiiiyiiiiiiiii55555555;;;;*%;;ooooOoOoXXXXXXXX        XXXXXXX.@@######iiiiiiyi########5533w1<<",
"XXXXXXXX...XX...>,<55555iiiiiiiiiiiiiiyyiiiiiiii55555555;;;;;%##oooooOooXXXXXXXX        XXXXXXXX@@######iiiiiiyy########553w;<<<",
"        >>>>,,>>0wyiiiiioXXXXXXX                X       XXXXXXXX*$$$*;;#1<<<<<<,w0w0w0wwwwww83ww0wtiiiiiw;w55555#########;;;;;;;",
"        >>>>,,,,wryiiiiiXXXXXXXX                X       XXXXXXXX$$$**;;;<<<<<<<<wwwwwwww00wwwwwwwryiiiiiww555555########;;;;;#;;",
"        >>>><<<<wtiiiiiiXXXXXXXX                        XXXXXXXX*$***#;;<<<<<<<<eerrweerwerreettyiiiiiii55555555########;;;;;*#;",
"        ,>,<1111yyiiiiiiXXXXXXXX                        XXXXXXXX******;;11212211tttirtyyyyyiuiiiiiiiiiii55555555########;;;;;***",
"        <<<15555iiiiiiiiXXXXXXXX                        XXXXXXXX*;;;;;;;5555www;iiiiiiiiiiiiiiiiiiiiiiii55555555########;;;;***%",
"        ,,115555iiiiiiiiXXXXXXXX                        XXXXXXXX*;;;;;;;5555w;;wiiiiiiiiiiiiiiiiiiiiiiii55555555########;;;;;*%%",
"        >,<15555iiiiiiiiXXXXXXXX              XX        XXXXXXXX;;;;;;;#555555w5iiiiiiiiiiiiiiiyiiiiiiii55555555########;;;;**%%",
"        >,<25555iiiiiiiiXXXXXXXX              XX        XXXXXXXX;;;;;;;#55555555iiiiiiiiiiiiiiiyiiiiiiii55555555########;;;;**%%",
"==;,;;;w90qyiiiiw;w;5555#;;;;;;;55555555yyiiiiiiOOOOOOOOOOOOOOOOXXXXXXXXXXXXXXXXXX              XXXXXXXXiiiiiiiiiiiiiiiiw;;;;;;;",
"===,ww;;9qriiiiiww5w5555;;;;;;;;5w555555yyiiiiiiOOOOOOOOOOOOOOOOXXXXXXXXXXXXXXXX                XXXXXXXXiiiiiiiiiiiiiiii;;;;;#;;",
"==;>;;5;qriiiiii555555;w;;;;;;;;w;2w5555iiiiiiyyOOOOOOOOOOOO@OOOXXXXXXXXXXXXXXXX                XXXXXXXXiiiiiiiiiiiiiiii;;;;;*;#",
"=:;w;w5;yuiiiiii5555w;ww;;;;;;;;w&w55555iiyiiyyyOOO#OOOOOOOOOOOOXXXXXXXXXXXXXXXX                XXXXXXXXiiiiiiiiiiiiiiii;;;;;;;;",
"::,1w;w5iiiiiiiy;w111111****;;;;11111121yywwerwwOOOOOOOOOOOOOOOOXXXXXXXXXXXXXXXX                XXXXXXXXiiiiiiiiiiiiiiii;;;;**#*",
":><1;w55iiiiiite5;<<1<<<****;#;;<<<<1<<<erwwwwwwOOOOOOOOOOOOOOOOXXXXXXXXXXXXXXXX                XXXXXXXXiiiiiiiiiiiiiiii;;;;;***",
"::<1;ww2iiiiiye0;w#1<<<<%%****#;<<<<<<<<wwwwwwwwOOOOOOOOOOO#OOOOXXXXXXXXXXXXXXXX                XXXXXXXXiiiiiiiiiiiiiiii;;;;***$",
"::<3w;wwiiiiit09w#;1,<,<%%#*%*;;<<,<<,<1wwwwww&wOOOOOOOOOOOOOOOOXXXXXXXXXXXXXXXX               XXXXXXXX#iiiiiiiiiiiiiiii;;;*****",
"++@#####iiiiie09                XXXXXXXXOoOooooowweuiiiiiiiiiiiiw;w;5555#;;;;;;;OOOOOO@O;;;;;;;;#OOOOO#XOOOOOOOOXXXXXXXXiiiiieww",
"+@@#####iiiiue09                XXXXXXXXoOoOoooo55euiiiiiiiiiiiiww5w5555;;;;;;;;OOOOOOOO;;;;;;;;OOOOOOX#O@OOOOOOXXXXXXXXiiiiyeww",
"+@@#####iiiiuee0                XXXXXXXXOoOoooOo8qeuiiiiiiyiiiii5w55w5w;;;;;;;;;OOOOOOOO;;;;;;;;OOOOOO@OOOOOOOOOXXXXXXXXiiiitww9",
"+@@#####iiiiueqq                XXXXXXXXOOoOoooo88qqttturyyrytrt5;w;;w;w;;;;****OOOOOOOO;;;;;;;;OOOOOOOOX#OOOOOOXXXXXXXXiiiitwww",
"@+@@####yyyytq0q                XXXXXXXXOOOOOooo877qqqqewwwwweww;53;w;<<#;*%%%%%OOOOOOOO;;;;;;;;OOOOOOOOOOOOOOOOXXXXXXXXiiiiywww",
"++@@##@@eerrq888                XXXXXXXXOOOOOooo7780qqqqww0ww0ww5;;w<1<<;;***$$%OOOOOOOO;;;;;;;;OOOOOOOOOOOOOOOOXXXXXXXXiiiiywww",
"++@@@@@#qqwq9777                XXXXXXXXOOOOOOoo878qqqqqw0ww0wq0;3;;<w;<****$$$$OOOOOOOO;;;;;;;;OOOOOOOOOOOOOOOOXXXXXXXXiiiiywww",
"++@@@@@@qqqq9877                XXXXXXXXOOOOOoOo888qqqqq0w00w0q0w;w;<;1<**#**$$%OOOOOOOO;;;;;;;;OOOOOXOOOOOOOOO#XXXXXXXXiiiiyww8",
"        oooOoOoo@@######+OOOOOOOXXXXXXXXXXXXXXXXXX..XXXX                .XXXX...<11;3533;;;;***$        <<w13355X       yyiiytew",
"        ooOooOoo@#######OOOOOOOOXXXXXXXXXXXXXXXXXXXXX.XX                XX.XX...<;1w355w;;;;;*%$        ;<;w3353X       yyiiyyww",
"        +ooOoooo########OOOOOOOOXXXXXXXXXXXXXXXXXXXXXXXX                XXXXXXX.<<w;33w;;;;;;*%$        ;,;2w333        yiiirwww",
"        ooOOOOOo########OOOOOOOOXXXXXXXXXXXXXXXXXXXXXXXX                XXXXXXX.,,;2;3<w;;;;;**%        w;333333        iiiitwww",
"        OOOOOOOO########OOOOOOOOXXXXXXXXXXXXXXXXX.XXXXXX                XX.XX..X;,:>,<<<;**;;***        ;;w355w;        iiiiyeww",
"        @OOOOOOO######@@OOOOOoOoXXXXXXXXXXXXXXXX.XX..XXX                XXX..X..:::>,<,,***;;***        w;;w555w        iiiyteww",
"        OOOOOOOO######@@OOOOoOoOXXXXXXXXXXXXXXXX..X.XXXX                XXX..X.X===>>,>>$%**;***        ;3;w55w;        iiyywwww",
"        OOOOOOOO######@@OOoOOoOoXXXXXXXXXXXXXXXX...XX.XX                ..XXXX.X==:>>>>:%***;**#        w;5;55ww        iiyytwww",
"        ########OOOOOOoo>>,<;3;5%%*%%%$%        $*$%*%%%qq0qw00w><<<<<<<oOoOooooXX.XX...>,,1w;<<        w0wtiiii        iiiiyyrw",
"        ########OOOOOOOo>:>;w;w;%%*%%$$$        $$$*%%%%wqww0www<<<<<<<<OOOoOoooXX......,<<11w<<        wweyiiii        iiiiyyww",
"        ########OOOOOOOO,><<;2;5%*%%$$$$        $$******q00qqqw0<<<<<111OooOooooXXXXX.XX;1<1231<        wweyiiii        iiiirwww",
"        ########OOOOOOOO<,;2;ww;*%*%%%$$        %%*;;;**0990qwww<11<<1<<OOOOooooXXXXXXX.<<<13;<<        wweyiiii        iiiitwww",
"        ########oooooooo>,<1333w;;;;*%*%        *$*;;*%%98800ww0<<<<<<<,OOOOOoOoXXX.XXXX<<<231<<        9weyiiii        iiiiyeww",
"        ########oooooooo::,<33w;;;;;**%%        *$*;;*%%88880w0w<<<<<>>>ooOOOOoo..XXXX.X<;<1w1<<        wweyiiii        iiiyyeww",
"        ########oooooooo::><33;w;;;;**%*        ***;;*%$88780w0w<,<<>>>>OooOOoooXXX.XXXX;w<1;3<<        5qeyiiii      XXiiyywwww",
"        ######@#oooooooo=;:<33ww;;;;**%*        ***;;*%%87780ww0<<<<,>>>oooOOOooX.XXX.X.<<<231<<        qqeyiiii      XXiiyyrwww",
"        ######@+%$$$%$$$X XXXXXX########        0wriurwwXXX.XXXXXXXXXX..><<331<<        ><<23;;3        wwryiiiiXXXXXXXXww55;w;;",
"        ######@@$$%$$$$$XXXXXXXX######@@        0wruurwwXXXXXXXXXXXXXX.X,<<31<<<        ,,<1w;w;        wweyiiiiXXXXXXXXw;55w;;w",
"        #######@%%$%%$$$XXXXXXXX#####@@@        wwwuuw0wXXXXXXXXXXXXXXXX<<<131<<        <<<2;w<<        wwryiiiiXXXXXXXX5555w;5;",
"        #######@%%%**%$$XXXXXXXX#####@#@        0wwyyww0XXXXXXXXXXXXXXXX<,<311<<        ,<<1w1<<        wwtyiiiiXXXXXXXX555533;w",
"        #######@%%****$*XXXXXXXX#####@@@        wwryyewwXXXXXXXXXXXXXXXX<<<13<<<        <<<2w;<<        wwwwiiiiXXXXXXXX5555;w;;",
"        #####@@@%%****$*XXXXXXXX####@@@@        wwryyewwXXXXXXXXXXXXXXXX<<<331<<        <<<2w1<<        wwweiiiiXXXXXXXX555ww;;w",
"        #####@@@%%******XXXXXXXX#####@#@        0weytw0wXXXXXXXXXXXXXXXX<<<131<<        ,<<11w;<        wwwtiiiiXXXXXXXX55w;w;3;",
"        #####@@+%%*****$XXXXXXXX#####@@@        0weytww0XXXXXXXXXXXXXXXX<<1111<<        <<<22;1<        wwwtiiiiXXXXXXXX553331;w",
"XXXXXXXX@OOOOOOo,<<1;w;<        iiiitwww        ,<1211<,        XXXXX..Xqqetirqq        wwetyww9XOOOOOOOwwwryiiiXXXXXXXXXXOOOOOO",
"XXXXXXXXOOOOOOOO,<<1w<;2        iiiirw0w        ,<<211,<        XXXXXXXXqqqtyrqq        9wwtiwwwOOOOOOOOwwwwyiiiXXXXXXXXX#OOOOOO",
"XXXXXXXXOOOOOOOO<<111<<<        iiiitw0w        ,<111<<<        XXXXXXX.qqqyyrqq        wwwtyrw9OOOOOOXOwwetiiiiXXXXXXXX#OOOOOX#",
"XXXXXXXXOOOOOOOO<<<111<<        iiiitww0        <<<21<<<        XXXXXX.Xqqqtirqq        w0wyyrwwOOOOOOOOwwetiiiiXXXXXXXXOOOOOO@X",
"XXXXXXXXOO@OOOOO<<<1w;<<        iiiitw0w        <<121<<<        XXXX..XX00qtyrqq        wwwriew0OOoOOOoOwwwriiiiXXXXXXXXOOOOOOOO",
"XXXXXXXXOOOOOOOO,<;ww1<<        iiiitw5w        <<<21<,,        XXXX....89qtirqq        9wwtuewwOOOOOoOowwweiiiiXXXXXXXXOOOOOOXO",
"XXXXXXXXOOOXOOXO<<<1;1;1        iiiitwww        <<<1<,,>        XXXX....89qtirqq        wwwtyr0wOOoOOOoOwwtyiiiiXXXXXXXXOOOOOOOO",
"XXXXXXXXOOO#OOOO<<<1w;1<        iiiitwww        ,<121,,,        XXXX....80qtirqq        wwwtyew9OooOOoOowwryiiiiXXXXXXXXOOOOOOOO",
"OOOOOOOOXXXXXXX.wwwtrww0        iiiirw0wOooOOooo%%%**%%%oooooOOO<<<<<,,,,,<w1<<<        0wwtyrww        <<1;w355XOOOOOOOXXXXXXXX",
"OOOOOOOOXXXXX.XX0wwrtwww        iiiirwwwoOOOOOoo%%***%%%OOoOOoOO<<<,<<,,,1122<<<        0wwtyrww        ;w<w3355#XOOOOOOXXXXXXXX",
"OOOOOOOOXXXXXX.Xwwwttww0        iiiitww0oo+OOooo%%%;;*;*OOOOoOOO<<<<<<<<<33ww1<<        0wwyyew0        1;;w3555X#OOOOOOXXXXXXXX",
"OOOOOOOOXXXXXXXXw0wttww0        iiiyrw0woooOOOoO%%%*;;*;OOOOOOOO111311333333;2<<        wwwyywww        2;3;3555@OOOOOOOXXXXXXXX",
"OOOOOOOOXXXXXXX.0wwrtwww        iiiitw00ooOOOOoo$%%*;*;;oOOOOOOO3333331311<w3w;;        0wwyuew0        ;w;w55w;OOOOOOOOXXXXXXXX",
"OOOOOoooXXXXXX.Xw0wttww0        iiiirwwwoOoOOOoo$$%%****ooOOOOOO<<<11<111w;<1;,<        0wwyuew0        ;ww;555wOOOO#OOOXXXXXXXX",
"ooOOOOOOXXXXXXXX0wwttw0w        iiiitww0OooOOOoo$$#****$OOOOXOOO<<<<<<<<;1<<<>:>        wwwyueww        3;5;55w;OOOOXOOOXXXXXXXX",
"ooOOOOOXXXXXXX..wwwttwww        iiiirw0woOOOOOoo*****$*$oOOOOOOO<<<<<<<,<<<<<,>>        0wwtueww        ;w;555wwOOOOO@OOXXXXXXXX",
":,,<,,:>...XXXXXw0wttwwwXXXXXXXXww55;;w;XX.XXXX.                X..XX..XXXXXXXXX...XXXX.@@@####@        00wriiiiOOOOOOOOXXXXXXXX",
",,,,<,:>...XXX.XwwwttwwwXXXXXXXX;w55w;;w.XXXXXXX                XXXXXXXXXXXXXXXX.XXXXX.X@@@##@@@        wwetiiii#OOOOOOOXXXXXXXX",
",,<<<,>>...XXX.X00wtrw0wXXXXXXXXw555w;;w.XXXXXXX                .XX..XX.XXXXXXXXXXXX..XX@#@#@@@@        wwetiiiiOOOOOOOOXXXXXXXX",
"15511<,,.XXXXXX.wwwrrww0XXXXXXXX;w55;w;;XX..XXXX                ........XXXXXXXXXXXXXXX.@@@###@@        9wwtiiiiOOOOOOOOXXXXXXXX",
"55555<<<XX..X..X0wwttww0XXXXXXXX555www;;........                XX.XX.XXXXXXXXXXXX....XX@@###@@@        wwwtyiiiOOOOOOOOXXXXXXXX",
"155555<<.XXXXXXXwwrttwwwXXXXXXXX555;;;<1........                .XX.X.X.XXXXXXX .XXX...XO#@##@@@        99etiiiiOOOOX@@OXXXXXXXX",
"555555<<X.X.XXXXw0rtrw0wXXXXXXXX55;w21<;........                XXX.XXXXX.XXXXXXX.X.X.XX+@####@#        99wtiiiiOOOOXOOOXXXXXXXX",
"555551<<X.XXXXXXwwwtrww0XXXXXXXX55ww2<<<.......                 ..XX.X..XXXXXXXXX.XXX.XX@@@###@#        wwwriiiiOOOO#OOOXXXXXXXX",
"uiiiitqq        ,11211<<oooOOO@OXXXXXXXX;w;3;3;wwwwwwwwwwwwwwwww$%***$*$;w;<<<;w#O##@@@@OOOOOOOOOOOOOOOOwwwyiiiiOOOOOOO#        ",
"iiiiieqq        <,,21,<,oooOOOOOXXXXXXXX3;35w;3;erwwwweewwwwerww**;***#*3;11<<23##O##@@@OOOOOOOOOOOOOOOOwwwtiiiiOOOOOO#X        ",
"iiiiutqq        <11111,<oOoOOOOOXXXXXXXX5w5;33w;yyyittytyytyyyyi***;;;;*3333w33;########OO@OOOOOOOOOOOOOwwetiiiiOOOOOOOO        ",
"iiiiitqq        ,,<211,,OoOOOOOOXXXXXXXXw;55333wiiiiiiiiiiiyiiii*;;;;;;;3335;w33########OOOXOOOOOOOOOOOOwwtyiiiiOOOOOOOO        ",
"iiiiirqq        <<122<<,oOoOOOOOXXXXXXXX55553555iiiiiiiiiiiiiiii;;;;;;;;55553333########OOO#OOOOOOOOOOOXwwwwiiiiOOOOOOOO        ",
"iiiiurqq        <<111<<<OOoOOOOOXXXXXXXX55555555iiiiiiiiiiiiiiii;;;;;;;;55553333########OOOOOOOOOOOOOOOOwwwwiiiiX#OOOOOO        ",
"iiiiirqq        <<<21<<,OOoOOOOOXXXXXXXX55555555iiiiiiiiiiiiiiii;;;;;;;;555535w3########OOOOOOOOOOOOOO#Xwwwwyiiy#OOOOOOO        ",
"iiiiurqq        <<<22<<>OOOOOOOOXXXXXXXX55555555iiiiiiiiiiiiiiii;;;;;;;;5555553w########OOOOOOOOOOOOX#XXwwweiiiyOOOOOOOO        ",
"iiiiueqq        ******$*                XXXXXXXXXXXXXXXXOOOOOOOOXXXXXXXXXXXXXXXXXXXXXXXXX               <<<;ww55#XOOOOOO        ",
"iiiiirqq        *******$                XXXXXXXXXXXXXXXXOOOOOO+OXXOXXXXXXXXXXXXXXXXXXXXX                <<1ww;55O#OOOOOO        ",
"iiiiueqq        ********                XXXXXXXXXXXXXXXXOOOOOOOOXXXXXXXXXXXXXXXXXXXXXXXX                <<#w;555OOOOOOOO        ",
"iiiiuwqq        *#*;***$                XXXXXXXXXXXXXXXXOOOOOOOOXXXXXXXXXXXXXXXXXXXXXXXX                1;1ww555OOOOOOOO        ",
"iiiiuqqq        %%****%%                XXXXXXXXXXXXXXXXOOOOOOooXXXXXXXXXXXXXXXXXXXXXXXX                11;;5555OOOOOOOO        ",
"iiiiuqqq        %%%;*%$%                XXXXXXXXXXXXXXXXOOOOOOooXXXXXXXXXXXXXXXXXXXXXXXX                ;;1w5555OOOOOOOO        ",
"iiiiuqqq        %%*;***%               XXXXXXXXXX..XXXXXOOOOOOOOXXXXXXXXXXXXXXXXXXXXXXXX                ;w;w55;wOOOOOOOO        ",
"iiiiuqqq        %%%;*%##               XXXXXXXXX.XXXXXXXOOOOOXOOXXXXXXXXXXXXXXXXXXXXXXXX                ;w;;55wwOOOOOOOO        ",
"iiiiuwqq        @@###@@@+@@@@@@@@@@@@@@@*%*$$***<<<<<<<<0w00w00ww00ww00w<<<<,<<<w00ww00w*$***$**#@@@@@@@########w;w;5555########",
"iiiitqqq        @@@##@#@@+@@@@@@@@@@#@@@*%%**$*$<<<<<<<<wwwwwwwwwwww0www<,<<<<<<wwww0www********@@@@@@@@########ww5w5555########",
"iiiitwqq        @@#####@@@@@@@@@@@@@@@@@**%%****<<<<<<<<wwwwwwwwwwwwwwww1<1<1<<<wwwwwwww$*#**$**#@@@@@@@########55555555#######X",
"iiiitwqq        @@@######@#@#@###@###@##********11112121trttettrrrrtrtrt11111111rrrtrrtr**;****;#@####@#########55555555########",
"iiiitqq0        ++@@@@@@@@@@@@@#@#@##@@#********11<11111eerwrreerwwrwerw111<1111rerrwere**;;;;;;################55555555########",
"iiiurq98        +++++@@@@@@@@#@@@#@@@#@@%%%%%%%%,<<<<<<<0wwwwww0wwwwwwww,1<<<<<<wwwwww0w**;;;;;;################55555555#######X",
"iiiitq88        +++@++++++@@@@@@@@@@@@@@%%%%%%%%<<<<<<<<0ww00wwww0w00w0w,<<<<<<,w00w0989%%*;;;;;################55555555#####@##",
"iiiitqq8        +@+++@++++@@@@@@@@@@@@@+%%%%%%%%<,<<,<<,w0ww0w0www0ww0ww<<<<<<,,0ww09888$**;;;;*################55555555#####@##",
"55555;;ww&www21<--------.....X.XXXXXXXX.                                .X..XXX.XXXXX...ooOOOOOOOOOOOOOO;;;;;;;;iiiiiiiiX       ",
"555555w;wwwwww26>->>--=-...X.X.XXXXXX.X.                                XXXXX.XXXXXXX...oOoOOOOOO#OOOOOO;;;;;;;;iiiiiiii        ",
"555555w;ewwwteet,>,>:--:....XXXXXXXXXXXX                                XXXXXX.XXXXX...XOoOOOOOOOOOOOOOO;;;;;;;;iiiiiiii        ",
"55555555yytwyyyy2224<>,,....XXXXXXXXXXXX                                XXXXXXXXXXXXX.XXoOoOO+OOOOOOOOOO;;;;;;;;iiiiiiii        ",
"55555555yyiiiiii5552<<<<XXXXXXXXXXXXXXXX                                XXXXXXXXXXXXXX.XoOoOOOOOOOOOOOOO;;;;;;;;iiiiiiii        ",
"55555555iiiiiiii55525<<,..XXXXXXXXXXXXXX                                .XXXXXXXXXXX.X.XoooOOOOOOOOOOOOO;;;;;;;;iiiiiiii        ",
"ww&w5555iiiiiiii55551<<,XX.X.XXXXXXXXXXX                                .XX.XXX.XXXXX.X.ooooOoooOOOOOOOO;;;;;;;;iiiiiiyy        ",
"2ww;5555iiiiiiii55551,,,...XXXXXXXXXXXXX                                XX.XX....XXXXX..oooOoOooOOOOOXOO;;;;;;;;iiiiiiyy        ",
"XXXXXXXX########5552;w;<<;>,<,<<qqqwqqq0ww0ww0w01wwwwwww<<<<<1;;%%%%%%%%%%%%%$$$..XXX...        .XXXX...wwtyiiii#XXXXXXX########",
"XXXXXXXX########5555w;;;,,,,<<<<qqq0qqw0w0w0w00wwwwwwwww,<<<<;ww%%%%%%%%%%%%#%$%...XXX..        XX..X...3weyiiiiXXXXXXXX########",
"XXXXXXXX########5555w;w;,>,<<<<,5qwwqqqw0ww00w0wwww3wwww<<<<<<;;%%%%%%%%%%%%*$$$.XX.XX..        X.XX....wwryiiiiXXXXXXXX########",
"XXXXXXXX########5555;w;;,,,<,<<<wwwwqqw0w0wwwwwwwwwwwwey<<<<1<w;%%%%****%%**%$%$X.XXXXXX        XX.XX...<wtyiiiiXXXXXXXX########",
"XXXXXXXX########555552;w3;;51<<1eeeeeetteeeerrrrwerryyyyw;w;5333**;;;;;;;;;;**%%XX.XXXXX        ........30qtiiiiXXXXXXXX######@@",
"XXX#XXXX########55552w55w5w;3333uiiuuiuiiiiiiiiieyiyyiyy;w5w;w33;;;;;;;;;;;;**%%X...XXXX        .X.XX...39wtiiiiXXXXXXXX####@@@@",
"XXXXXXXX########5555ww;5;w55w;3wiiiiiiiiiiiiiiiiiiiiiiyy5555333w;;;;;;;;;;;;**%$..XXXXXX        X.XXX.XX89wtyiiyXXXXXXXX######@@",
"XXXXXXXX;#######5555w&w5555w;ww1iiiiiiiiiiiiiiiiiiiiiiiy5555333w;;;;;;;;;;;;;*%$..XXXXXX        .XX.X.XX9weyiiiyXXXXXXXX####@@@@",
"XXXXXXXX;;;;;;;;iiiiiiii########;;;;;;;;55555555;;;;;;;;;;;;;;;;OOOOOOOOww55553;8889wwqq,<<<<<110qqqq089;33;w555XXXXXXXXww55;3;w",
"XXXXXXXX;;;;;;;;iiiiiiii########;;;;;;;;55555555;;;;;;;;;;;;;;;;OOOOOOOOw;555;;39380w0qq<<<,<<<;qwqqqqqq3;3w5555XXXXXXXXw;53w;;;",
"XXXXXXXX;;;;;;;;iiiiiiii########;;;;;;;;55555533;;;;;;;;;;;;;;;;OOOOOOOO33w553w;wwwwqwwe1<<11<<1eerrtert33555555XXXXXXXX3555;ww;",
"XXXXXXXX;;;;;;;;iiiiiiii########;;;;;;;;555555w;;;;;;;;;;;;;;;;;@OOOX@OO33;w553wtrerrttt13313322uiiiiiii55555555XXXXXXXX5553w;;w",
"XXXXXXXX********yttttttt########*****;*;3533w<1w;*;*;;;;**;;;;**OOOOOOOO33;w3535tyiiiiyy333ww1w1iiiiiiiiw;ww3322XXXXXXXXw;ww;;w;",
"XXXXXXXX*%******ewwwwwww##X#####********;3w;<1<1****;;;;%%;*****OOOOOOOO1331;w5;wwrrrrtw123;11;wtttttttt133;3w;wXXXXXXXX3w;3w;1;",
"XXXXXXXX%%*$*#%%0wwww0ww@@######$***#***<<;1<<<<*%%%**;#*%%%****OOOOOOO@;w<<<12;wwwwwwww1<<<1<<1qqqeeeqq<1<1;3;1XXXXXXXX;3<1<><,",
"XXXXXXXX%%%***%$w0www05w@#####X#**$***;#<<<1<<,>%%%%**;;%%%%%**#OOOO+XOX1;<<<<13wwwwwwww<<<<,<<<qqqqqqqq<<<;w;w;XXXXXXXXw;<<>>;,"
};
